<svg width="59" height="48" viewBox="0 0 59 48" fill="none" xmlns="http://www.w3.org/2000/svg">
<path d="M52.2628 12.3247C52.3007 12.8351 52.3008 13.3426 52.3008 13.8501C52.3008 29.3813 40.4795 47.278 18.8758 47.278C12.2199 47.278 6.03659 45.3501 0.833252 42.0018C1.77825 42.1097 2.68825 42.1476 3.67117 42.1476C8.95906 42.1604 14.0972 40.3922 18.2574 37.128C15.8057 37.0836 13.4291 36.2748 11.4594 34.8143C9.48963 33.3539 8.02512 31.3148 7.27033 28.9818C7.99658 29.0897 8.72575 29.1626 9.48992 29.1626C10.5428 29.1626 11.6016 29.0168 12.5845 28.763C9.9238 28.2258 7.5313 26.7836 5.81381 24.6817C4.09631 22.5797 3.15986 19.9478 3.16367 17.2334V17.0876C4.72992 17.9597 6.547 18.5051 8.472 18.578C6.85934 17.5064 5.53702 16.0522 4.62299 14.3453C3.70897 12.6384 3.23166 10.7317 3.23367 8.7955C3.23367 6.61384 3.81409 4.613 4.832 2.86884C7.78407 6.50014 11.466 9.47089 15.6392 11.5887C19.8125 13.7065 24.3841 14.924 29.0578 15.1626C28.877 14.2876 28.7662 13.3805 28.7662 12.4705C28.7654 10.9275 29.0688 9.39942 29.6589 7.9737C30.249 6.54798 31.1144 5.25255 32.2055 4.16147C33.2966 3.07038 34.592 2.20503 36.0177 1.6149C37.4434 1.02476 38.9715 0.721403 40.5145 0.722169C43.8978 0.722169 46.9516 2.13967 49.0983 4.43217C51.7284 3.92355 54.2507 2.9634 56.5532 1.59425C55.6765 4.30913 53.84 6.61122 51.3878 8.06925C53.7205 7.80319 56.0003 7.18974 58.1516 6.24925C56.5449 8.59162 54.5539 10.6457 52.2628 12.3247Z" fill="#CCCCCC"/>
</svg>
